<svg width="971" height="415" xmlns="http://www.w3.org/2000/svg" xmlns:xlink="http://www.w3.org/1999/xlink" fill="#ffffff"><defs><style>
  text {
    fill: #212529;
    font-family: Helvetica Neue, Helvetica, Arial, sans-serif;
    font-size: 16px;
  }

  marker, text {
    fill-opacity: 1;
  }

  * {
    overflow: visible;
  }
</style></defs><svg x="185" y="65" width="160" height="70" class="League" fill="#ffffff"><g><rect width="100%" height="40" stroke="none" fill="white" class="sc-fqkvVR eDtKfR"></rect><rect y="40" width="100%" height="30" stroke="none" fill="white" class="sc-fqkvVR eDtKfR"></rect><svg height="40"><text x="50%" y="50%" dominant-baseline="middle" text-anchor="middle" font-weight="bold" pointer-events="none">League</text></svg><svg x="0" y="40.5" width="159" height="30" class="+ name: str" fill="#ffffff"><g><rect width="100%" height="100%" stroke="none" fill="white" class="sc-fqkvVR eDtKfR"></rect><text x="10" y="50%" dominant-baseline="middle" text-anchor="start" font-weight="normal" pointer-events="none">+ name: str</text></g></svg><rect width="100%" height="100%" stroke="black" fill="none" class="sc-fqkvVR jAaomD"></rect><path d="M 0 40 H 160" stroke="black" fill="white" class="sc-gEvEer fkqzOi"></path></g></svg><svg x="495" y="15" width="190" height="70" class="Tournament" fill="#ffffff"><g><rect width="100%" height="40" stroke="none" fill="white" class="sc-fqkvVR eDtKfR"></rect><rect y="40" width="100%" height="30" stroke="none" fill="white" class="sc-fqkvVR eDtKfR"></rect><svg height="40"><text x="50%" y="50%" dominant-baseline="middle" text-anchor="middle" font-weight="bold" pointer-events="none">Tournament</text></svg><svg x="0" y="40.5" width="189" height="30" class="+ type: TournamentType" fill="#ffffff"><g><rect width="100%" height="100%" stroke="none" fill="white" class="sc-fqkvVR eDtKfR"></rect><text x="10" y="50%" dominant-baseline="middle" text-anchor="start" font-weight="normal" pointer-events="none">+ type: TournamentType</text></g></svg><rect width="100%" height="100%" stroke="black" fill="none" class="sc-fqkvVR jAaomD"></rect><path d="M 0 40 H 190" stroke="black" fill="white" class="sc-gEvEer fkqzOi"></path></g></svg><svg x="765" y="25" width="160" height="110" class="TournamentType" fill="#ffffff"><g><rect width="100%" height="50" stroke="none" fill="white" class="sc-fqkvVR eDtKfR"></rect><rect y="50" width="100%" height="60" stroke="none" fill="white" class="sc-fqkvVR eDtKfR"></rect><svg height="50"><text x="50%" y="50%" dominant-baseline="middle" text-anchor="middle" font-weight="bold" pointer-events="none"><tspan x="50%" dy="-8" text-anchor="middle" font-size="85%">«enumeration»</tspan><tspan x="50%" dy="18" text-anchor="middle">TournamentType</tspan></text></svg><svg x="0" y="50.5" width="159" height="30" class="Pro" fill="#ffffff"><g><rect width="100%" height="100%" stroke="none" fill="white" class="sc-fqkvVR eDtKfR"></rect><text x="10" y="50%" dominant-baseline="middle" text-anchor="start" font-weight="normal" pointer-events="none">Pro</text></g></svg><svg x="0" y="80.5" width="159" height="30" class="Amateur" fill="#ffffff"><g><rect width="100%" height="100%" stroke="none" fill="white" class="sc-fqkvVR eDtKfR"></rect><text x="10" y="50%" dominant-baseline="middle" text-anchor="start" font-weight="normal" pointer-events="none">Amateur</text></g></svg><rect width="100%" height="100%" stroke="black" fill="none" class="sc-fqkvVR jAaomD"></rect><path d="M 0 50 H 160" stroke="black" fill="white" class="sc-gEvEer fkqzOi"></path></g></svg><svg x="185" y="235" width="160" height="160" class="Player" fill="#ffffff"><g><rect width="100%" height="40" stroke="none" fill="white" class="sc-fqkvVR eDtKfR"></rect><rect y="40" width="100%" height="120" stroke="none" fill="white" class="sc-fqkvVR eDtKfR"></rect><svg height="40"><text x="50%" y="50%" dominant-baseline="middle" text-anchor="middle" font-weight="bold" pointer-events="none">Player</text></svg><svg x="0" y="40.5" width="159" height="30" class="+ name: str" fill="#ffffff"><g><rect width="100%" height="100%" stroke="none" fill="white" class="sc-fqkvVR eDtKfR"></rect><text x="10" y="50%" dominant-baseline="middle" text-anchor="start" font-weight="normal" pointer-events="none">+ name: str</text></g></svg><svg x="0" y="70.5" width="159" height="30" class="+ dateOfBirth: date" fill="#ffffff"><g><rect width="100%" height="100%" stroke="none" fill="white" class="sc-fqkvVR eDtKfR"></rect><text x="10" y="50%" dominant-baseline="middle" text-anchor="start" font-weight="normal" pointer-events="none">+ dateOfBirth: date</text></g></svg><svg x="0" y="100.5" width="159" height="30" class="+ height: float" fill="#ffffff"><g><rect width="100%" height="100%" stroke="none" fill="white" class="sc-fqkvVR eDtKfR"></rect><text x="10" y="50%" dominant-baseline="middle" text-anchor="start" font-weight="normal" pointer-events="none">+ height: float</text></g></svg><svg x="0" y="130.5" width="159" height="30" class="+ isPro: bool" fill="#ffffff"><g><rect width="100%" height="100%" stroke="none" fill="white" class="sc-fqkvVR eDtKfR"></rect><text x="10" y="50%" dominant-baseline="middle" text-anchor="start" font-weight="normal" pointer-events="none">+ isPro: bool</text></g></svg><rect width="100%" height="100%" stroke="black" fill="none" class="sc-fqkvVR jAaomD"></rect><path d="M 0 40 H 160" stroke="black" fill="white" class="sc-gEvEer fkqzOi"></path></g></svg><svg x="505" y="325" width="160" height="70" class="Game" fill="#ffffff"><g><rect width="100%" height="40" stroke="none" fill="white" class="sc-fqkvVR eDtKfR"></rect><rect y="40" width="100%" height="30" stroke="none" fill="white" class="sc-fqkvVR eDtKfR"></rect><svg height="40"><text x="50%" y="50%" dominant-baseline="middle" text-anchor="middle" font-weight="bold" pointer-events="none">Game</text></svg><svg x="0" y="40.5" width="159" height="30" class="+ attribute: str" fill="#ffffff"><g><rect width="100%" height="100%" stroke="none" fill="white" class="sc-fqkvVR eDtKfR"></rect><text x="10" y="50%" dominant-baseline="middle" text-anchor="start" font-weight="normal" pointer-events="none">+ attribute: str</text></g></svg><rect width="100%" height="100%" stroke="black" fill="none" class="sc-fqkvVR jAaomD"></rect><path d="M 0 40 H 160" stroke="black" fill="white" class="sc-gEvEer fkqzOi"></path></g></svg><svg x="505" y="175" width="160" height="70" class="Matchup" fill="#ffffff"><g><rect width="100%" height="40" stroke="none" fill="white" class="sc-fqkvVR eDtKfR"></rect><rect y="40" width="100%" height="30" stroke="none" fill="white" class="sc-fqkvVR eDtKfR"></rect><svg height="40"><text x="50%" y="50%" dominant-baseline="middle" text-anchor="middle" font-weight="bold" pointer-events="none">Matchup</text></svg><svg x="0" y="40.5" width="159" height="30" class="+ attribute: str" fill="#ffffff"><g><rect width="100%" height="100%" stroke="none" fill="white" class="sc-fqkvVR eDtKfR"></rect><text x="10" y="50%" dominant-baseline="middle" text-anchor="start" font-weight="normal" pointer-events="none">+ attribute: str</text></g></svg><rect width="100%" height="100%" stroke="black" fill="none" class="sc-fqkvVR jAaomD"></rect><path d="M 0 40 H 160" stroke="black" fill="white" class="sc-gEvEer fkqzOi"></path></g></svg><svg x="795" y="305" width="160" height="70" class="Frame" fill="#ffffff"><g><rect width="100%" height="40" stroke="none" fill="white" class="sc-fqkvVR eDtKfR"></rect><rect y="40" width="100%" height="30" stroke="none" fill="white" class="sc-fqkvVR eDtKfR"></rect><svg height="40"><text x="50%" y="50%" dominant-baseline="middle" text-anchor="middle" font-weight="bold" pointer-events="none">Frame</text></svg><svg x="0" y="40.5" width="159" height="30" class="+ score: int" fill="#ffffff"><g><rect width="100%" height="100%" stroke="none" fill="white" class="sc-fqkvVR eDtKfR"></rect><text x="10" y="50%" dominant-baseline="middle" text-anchor="start" font-weight="normal" pointer-events="none">+ score: int</text></g></svg><rect width="100%" height="100%" stroke="black" fill="none" class="sc-fqkvVR jAaomD"></rect><path d="M 0 40 H 160" stroke="black" fill="white" class="sc-gEvEer fkqzOi"></path></g></svg><svg x="15" y="145" width="160" height="100" class="" fill="#ffffff"><g><path d="M 0 0 L 145 0 L 160 15 L 160 100 L 0 100 L 0 0 Z" stroke-width="1.2" stroke-miterlimit="10" stroke="black" fill="white" class="sc-gEvEer fkqzOi"></path><path d="M 145 0 L 145 15 L 160 15" stroke-width="1.2" stroke-miterlimit="10" stroke="black" fill="none" class="sc-gEvEer bFSwyf"></path><clipPath id="clip-e2133190-e961-45ad-8a17-ba626ed48ee2"><rect x="20" y="20" width="120" height="60"></rect></clipPath><g clip-path="url(#clip-e2133190-e961-45ad-8a17-ba626ed48ee2)"><text x="20" y="25" style="font-size: 18px; dominant-baseline: hanging;"><tspan x="20" dy="0" text-anchor="start">`Context</tspan><tspan x="20" dy="16" text-anchor="start">"Player" inv:</tspan><tspan x="20" dy="16" text-anchor="start">self.heigh...</tspan></text></g></g></svg><svg x="580" y="85" width="18.90625" height="100" class="" fill="#ffffff"><g><marker id="marker-4c868d63-43ad-4bed-8bfc-8b2ee60e0252" viewBox="0 0 30 30" markerWidth="30" markerHeight="30" refX="30" refY="15" orient="auto" markerUnits="strokeWidth"><path d="M0,15 L15,22 L30,15 L15,8 z" stroke="white" fill="black" class="sc-eqUAAy dLsBSg"></path></marker><polyline points="5 90,5 0" stroke-width="1" marker-end="url(#marker-4c868d63-43ad-4bed-8bfc-8b2ee60e0252)" stroke="black" fill="none" class="sc-aXZVg eMElBf"></polyline><text x="5" y="82" dx="5" text-anchor="start" pointer-events="none">*</text><text x="5" y="31" dx="5" dy="10" text-anchor="start" pointer-events="none">1</text><text x="5" y="82" dx="-5" text-anchor="end" pointer-events="none"></text><text x="5" y="31" dx="-5" dy="10" text-anchor="end" pointer-events="none"></text></g></svg><svg x="260" y="135" width="36.6875" height="110" class="" fill="#ffffff"><g><marker id="marker-68fd3312-ea23-43a9-9858-e537b168f100" viewBox="0 0 30 30" markerWidth="30" markerHeight="30" refX="30" refY="15" orient="auto" markerUnits="strokeWidth"><path d="M0,15 L15,22 L30,15 L15,8 z" stroke="white" fill="black" class="sc-eqUAAy dLsBSg"></path></marker><polyline points="5 100,5 0" stroke-width="1" marker-end="url(#marker-68fd3312-ea23-43a9-9858-e537b168f100)" stroke="black" fill="none" class="sc-aXZVg eMElBf"></polyline><text x="5" y="92" dx="5" text-anchor="start" pointer-events="none">0..*</text><text x="5" y="31" dx="5" dy="10" text-anchor="start" pointer-events="none">1..1</text><text x="5" y="92" dx="-5" text-anchor="end" pointer-events="none"></text><text x="5" y="31" dx="-5" dy="10" text-anchor="end" pointer-events="none"></text></g></svg><svg x="345" y="350" width="160" height="49" class="" fill="#ffffff"><g><marker id="marker-b949f6a3-f098-4db6-95d7-d54b88fb12e8" viewBox="0 0 30 30" markerWidth="22" markerHeight="30" refX="30" refY="15" orient="auto" markerUnits="strokeWidth"><path d="M0,29 L30,15 L0,1" stroke="black" fill="none" class="sc-gEvEer bFSwyf"></path></marker><polyline points="160 10,0 10" stroke-width="1" marker-end="url(#marker-b949f6a3-f098-4db6-95d7-d54b88fb12e8)" stroke="black" fill="none" class="sc-aXZVg eMElBf"></polyline><text x="152" y="10" dy="21" text-anchor="end" pointer-events="none">1</text><text x="31" y="10" dy="21" text-anchor="start" pointer-events="none">1</text><text x="152" y="10" dy="-10" text-anchor="end" pointer-events="none"></text><text x="31" y="10" dy="-10" text-anchor="start" pointer-events="none"></text></g></svg><svg x="665" y="340" width="130" height="49" class="" fill="#ffffff"><g><marker id="marker-e86e8e7a-1fc8-4a04-a34f-c3538485be0f" viewBox="0 0 30 30" markerWidth="30" markerHeight="30" refX="30" refY="15" orient="auto" markerUnits="strokeWidth"><path d="M0,15 L15,22 L30,15 L15,8 z" stroke="white" fill="black" class="sc-eqUAAy dLsBSg"></path></marker><polyline points="130 10,0 10" stroke-width="1" marker-end="url(#marker-e86e8e7a-1fc8-4a04-a34f-c3538485be0f)" stroke="black" fill="none" class="sc-aXZVg eMElBf"></polyline><text x="122" y="10" dy="21" text-anchor="end" pointer-events="none">*</text><text x="31" y="10" dy="21" text-anchor="start" pointer-events="none">1</text><text x="122" y="10" dy="-10" text-anchor="end" pointer-events="none"></text><text x="31" y="10" dy="-10" text-anchor="start" pointer-events="none"></text></g></svg><svg x="580" y="245" width="18.90625" height="90" class="" fill="#ffffff"><g><marker id="marker-dd0833a6-051c-4afc-9296-ac3a5a3b4222" viewBox="0 0 30 30" markerWidth="30" markerHeight="30" refX="30" refY="15" orient="auto" markerUnits="strokeWidth"><path d="M0,15 L15,22 L30,15 L15,8 z" stroke="white" fill="black" class="sc-eqUAAy dLsBSg"></path></marker><polyline points="5 80,5 0" stroke-width="1" marker-end="url(#marker-dd0833a6-051c-4afc-9296-ac3a5a3b4222)" stroke="black" fill="none" class="sc-aXZVg eMElBf"></polyline><text x="5" y="72" dx="5" text-anchor="start" pointer-events="none">2</text><text x="5" y="31" dx="5" dy="10" text-anchor="start" pointer-events="none">1</text><text x="5" y="72" dx="-5" text-anchor="end" pointer-events="none"></text><text x="5" y="31" dx="-5" dy="10" text-anchor="end" pointer-events="none"></text></g></svg><svg x="90" y="245" width="95" height="91" class="" fill="#ffffff"><g><polyline points="95 70,5 70,5 0" stroke-width="1" marker-end="url(#marker-8afa358f-7093-46b0-8258-b64cd1f38205)" stroke-dasharray="5,5" stroke="black" fill="none" class="sc-aXZVg eMElBf"></polyline><text x="87" y="70" dy="21" text-anchor="end" pointer-events="none"></text><text x="5" y="8" dx="5" dy="10" text-anchor="start" pointer-events="none"></text><text x="87" y="70" dy="-10" text-anchor="end" pointer-events="none"></text><text x="5" y="8" dx="-5" dy="10" text-anchor="end" pointer-events="none"></text></g></svg></svg>